<svg width="953" height="330" viewBox="0 0 953 330" fill="none" xmlns="http://www.w3.org/2000/svg">
<path d="M922.237 95.6709C922.237 101.438 916.637 106.157 909.792 106.157H890.723C883.879 106.157 878.279 101.438 878.279 95.6709V37.2716C878.279 31.5043 883.879 26.7856 890.723 26.7856H909.792C916.637 26.7856 922.237 31.5043 922.237 37.2716V95.6709Z" fill="#6069E8"/>
<path d="M838.496 324.698V269.37H919.318L849.216 328.44C845.26 331.773 838.496 329.412 838.496 324.698Z" fill="#6069E8"/>
<path d="M923.647 265.936H838.496V272.567H915.369L923.647 265.936Z" fill="#6069E8"/>
<path d="M941.153 102.134L824.841 4.11894C818.326 -1.37298 807.677 -1.37298 801.161 4.11894L684.85 102.134C678.319 107.625 673 118.457 673 126.215V143.48C734.42 181.933 810.492 204.675 892.871 204.675C913.366 204.675 933.43 203.256 953 200.549V126.215C953 118.457 947.667 107.625 941.153 102.134Z" fill="#6069E8"/>
<path d="M892.871 220.549C810.492 220.549 734.42 197.808 673 159.354V252.617C673 260.372 680.537 266.725 689.745 266.725H936.259C945.461 266.725 953 260.372 953 252.617V216.424C933.43 219.131 913.366 220.549 892.871 220.549Z" fill="#6069E8"/>
<path d="M69.1331 147.066V142.348C68.1186 119.016 62.4662 107.351 52.1759 107.351C47.1033 107.351 42.6103 110.758 38.6971 117.574C34.7839 124.128 32.1751 133.959 30.8707 147.066H69.1331ZM91.9601 205.657V253.63C84.4235 262.543 72.9013 267 57.3935 267C39.2769 267 25.1459 257.563 15.0006 238.688C5.00019 219.551 0 195.04 0 165.155C0 133.434 4.85526 108.661 14.5658 90.835C24.4212 72.7467 36.5231 63.7025 50.8715 63.7025C65.6547 63.7025 77.3218 71.567 85.8729 87.296C94.4239 102.763 98.6994 125.963 98.6994 156.897C98.6994 162.926 98.1197 173.281 96.9602 187.962H32.1751C34.3491 198.972 38.1174 207.492 43.4799 213.521C48.8425 219.551 55.292 222.566 62.8285 222.566C73.9883 222.566 83.6989 216.929 91.9601 205.657Z" fill="#6069E8"/>
<path d="M155.92 49.1532V123.866H171.79C186.283 123.866 193.53 111.021 193.53 85.3299C193.53 74.0574 191.646 65.2754 187.877 58.9838C184.109 52.43 178.964 49.1532 172.442 49.1532H155.92ZM197.878 265.034L166.137 173.019H155.92V265.034H122.44V0H173.094C189.472 0 202.588 7.86451 212.444 23.5935C222.444 39.3225 227.444 59.7702 227.444 84.9367C227.444 122.686 218.531 148.77 200.704 163.189L237.879 265.034H197.878Z" fill="#6069E8"/>
<path d="M318.591 147.066V142.348C317.576 119.016 311.924 107.351 301.633 107.351C296.561 107.351 292.068 110.758 288.155 117.574C284.242 124.128 281.633 133.959 280.328 147.066H318.591ZM341.418 205.657V253.63C333.881 262.543 322.359 267 306.851 267C288.734 267 274.603 257.563 264.458 238.688C254.458 219.551 249.458 195.04 249.458 165.155C249.458 133.434 254.313 108.661 264.023 90.835C273.879 72.7467 285.981 63.7025 300.329 63.7025C315.112 63.7025 326.779 71.567 335.33 87.296C343.881 102.763 348.157 125.963 348.157 156.897C348.157 162.926 347.577 173.281 346.418 187.962H281.633C283.807 198.972 287.575 207.492 292.938 213.521C298.3 219.551 304.75 222.566 312.286 222.566C323.446 222.566 333.156 216.929 341.418 205.657Z" fill="#6069E8"/>
<path d="M402.551 65.6686V99.486C405.305 88.4757 409.508 79.8247 415.16 73.5331C420.958 66.9794 427.842 63.7025 435.813 63.7025C447.118 63.7025 455.959 69.863 462.336 82.1841C468.713 94.243 471.902 112.069 471.902 135.663V265.034H440.161V146.28C440.161 134.483 438.639 125.57 435.596 119.541C432.552 113.249 428.277 110.103 422.769 110.103C416.972 110.103 412.117 114.297 408.203 122.686C404.435 130.813 402.551 143.134 402.551 159.649V265.034H370.811V65.6686H402.551Z" fill="#6069E8"/>
<path d="M533.66 107.744V199.365C533.66 206.443 534.747 211.817 536.921 215.487C539.24 219.158 542.211 220.993 545.834 220.993C551.632 220.993 556.777 218.371 561.27 213.128V260.708C555.907 264.903 548.661 267 539.53 267C514.456 267 501.92 244.324 501.92 198.972V107.744H486.049V65.6686H501.92V18.4816H533.66V65.6686H559.313V107.744H533.66Z" fill="#6069E8"/>
<path d="M650.348 71.567V120.72C642.666 112.594 633.68 108.53 623.39 108.53C619.622 108.53 616.723 109.972 614.694 112.856C612.665 115.477 611.65 118.885 611.65 123.08C611.65 125.439 612.013 127.667 612.737 129.764C613.462 131.862 614.622 133.828 616.216 135.663C617.955 137.498 619.549 139.202 620.999 140.775C622.593 142.085 624.694 143.789 627.303 145.887C630.057 147.984 632.231 149.819 633.825 151.392C640.492 157.683 645.855 165.024 649.913 173.412C653.971 181.539 656 192.025 656 204.87C656 224.532 652.087 239.736 644.26 250.485C636.434 261.233 626.071 266.607 613.172 266.607C599.838 266.607 588.679 262.543 579.693 254.417V203.297C589.693 215.881 600.273 222.172 611.433 222.172C619.404 222.172 623.39 217.585 623.39 208.409C623.39 206.05 623.028 203.822 622.303 201.725C621.578 199.627 620.346 197.661 618.607 195.826C616.868 193.991 615.274 192.549 613.824 191.501C612.375 190.19 610.274 188.486 607.52 186.389C604.766 184.292 602.665 182.588 601.215 181.277C586.577 168.694 579.258 149.819 579.258 124.652C579.258 105.253 583.316 90.1797 591.432 79.4315C599.694 68.6834 609.911 63.3093 622.086 63.3093C633.39 63.3093 642.811 66.0619 650.348 71.567Z" fill="#6069E8"/>
</svg>
