<svg width="25" height="47" viewBox="0 0 25 47" fill="none" xmlns="http://www.w3.org/2000/svg">
<path d="M17.5 2H7.5C4.74 2 2.5 4.23 2.5 6.98V12.96V13.96C2.5 16.71 4.74 18.94 7.5 18.94H9C9.27 18.94 9.63 19.12 9.8 19.34L11.3 21.33C11.96 22.21 13.04 22.21 13.7 21.33L15.2 19.34C15.39 19.09 15.69 18.94 16 18.94H17.5C20.26 18.94 22.5 16.71 22.5 13.96V6.98C22.5 4.23 20.26 2 17.5 2ZM13.5 13.75H7.5C7.09 13.75 6.75 13.41 6.75 13C6.75 12.59 7.09 12.25 7.5 12.25H13.5C13.91 12.25 14.25 12.59 14.25 13C14.25 13.41 13.91 13.75 13.5 13.75ZM17.5 8.75H7.5C7.09 8.75 6.75 8.41 6.75 8C6.75 7.59 7.09 7.25 7.5 7.25H17.5C17.91 7.25 18.25 7.59 18.25 8C18.25 8.41 17.91 8.75 17.5 8.75Z" fill="url(#paint0_linear_8_1878)"/>
<path d="M6.77764 33.26V35.036C6.17764 34.668 5.50964 34.484 4.77364 34.484C4.12564 34.484 3.58164 34.712 3.14164 35.168C2.70164 35.616 2.48164 36.22 2.48164 36.98C2.48164 37.724 2.70164 38.316 3.14164 38.756C3.58164 39.188 4.14964 39.404 4.84564 39.404C5.59764 39.404 6.24164 39.212 6.77764 38.828V40.64C6.28964 40.944 5.58564 41.096 4.66564 41.096C3.48164 41.096 2.48964 40.716 1.68964 39.956C0.897641 39.188 0.501641 38.196 0.501641 36.98C0.501641 35.748 0.885641 34.744 1.65364 33.968C2.42964 33.192 3.43764 32.804 4.67764 32.804C5.58964 32.804 6.28964 32.956 6.77764 33.26ZM9.79302 32.516V35.948C10.105 35.22 10.713 34.856 11.617 34.856C12.209 34.856 12.689 35.044 13.057 35.42C13.433 35.796 13.621 36.364 13.621 37.124V41H11.869V37.4C11.869 37.048 11.781 36.772 11.605 36.572C11.429 36.372 11.201 36.272 10.921 36.272C10.801 36.272 10.685 36.292 10.573 36.332C10.469 36.364 10.353 36.428 10.225 36.524C10.097 36.612 9.99302 36.768 9.91302 36.992C9.83302 37.208 9.79302 37.472 9.79302 37.784V41H8.04102V32.516H9.79302ZM17.954 38.504H17.39C17.094 38.504 16.866 38.568 16.706 38.696C16.546 38.824 16.466 38.988 16.466 39.188C16.466 39.596 16.702 39.8 17.174 39.8C17.422 39.8 17.614 39.724 17.75 39.572C17.886 39.42 17.954 39.212 17.954 38.948V38.504ZM15.11 36.788V35.216C15.59 34.944 16.282 34.808 17.186 34.808C18.05 34.808 18.694 34.996 19.118 35.372C19.542 35.74 19.754 36.316 19.754 37.1V41H18.038V40.256C17.782 40.776 17.278 41.036 16.526 41.036C15.934 41.036 15.47 40.868 15.134 40.532C14.806 40.196 14.642 39.776 14.642 39.272C14.642 38.688 14.854 38.236 15.278 37.916C15.71 37.588 16.346 37.424 17.186 37.424H17.954V37.004C17.954 36.492 17.614 36.236 16.934 36.236C16.278 36.236 15.67 36.42 15.11 36.788ZM23.0975 36.2V38.996C23.0975 39.212 23.1575 39.376 23.2775 39.488C23.4055 39.6 23.5695 39.656 23.7695 39.656C24.0895 39.656 24.3735 39.576 24.6215 39.416V40.868C24.3255 40.996 23.9255 41.06 23.4215 41.06C22.0375 41.06 21.3455 40.368 21.3455 38.984V36.2H20.4695V34.916H21.3455V33.476H23.0975V34.916H24.5135V36.2H23.0975Z" fill="url(#paint1_linear_8_1878)"/>
<defs>
<linearGradient id="paint0_linear_8_1878" x1="2.5" y1="3.03397" x2="21.1112" y2="21.9993" gradientUnits="userSpaceOnUse">
<stop stop-color="#917AFD"/>
<stop offset="1" stop-color="#6246EA"/>
</linearGradient>
<linearGradient id="paint1_linear_8_1878" x1="-1.91026e-07" y1="28.9828" x2="16.9605" y2="51.7124" gradientUnits="userSpaceOnUse">
<stop stop-color="#917AFD"/>
<stop offset="1" stop-color="#6246EA"/>
</linearGradient>
</defs>
</svg>
