<svg width="41" height="47" viewBox="0 0 41 47" fill="none" xmlns="http://www.w3.org/2000/svg">
<path d="M25.72 9.75H17.46C16.9 9.75 16.34 9.56001 15.9 9.20001L13.71 7.45001C13.11 6.97001 12.77 6.26 12.77 5.5C12.77 4.74 13.11 4.01999 13.71 3.54999L15.9 1.79999C16.34 1.44999 16.9 1.25 17.46 1.25H25.72C27.1 1.25 28.22 2.37 28.22 3.75V7.25C28.22 8.63 27.1 9.75 25.72 9.75ZM17.46 2.75C17.23 2.75 17.01 2.83 16.84 2.97L14.65 4.72C14.41 4.91 14.27 5.2 14.27 5.5C14.27 5.8 14.41 6.09 14.65 6.28L16.84 8.03C17.02 8.17 17.24 8.25 17.46 8.25H25.72C26.27 8.25 26.72 7.8 26.72 7.25V3.75C26.72 3.2 26.27 2.75 25.72 2.75H17.46Z" fill="url(#paint0_linear_8_1860)"/>
<path d="M17.46 2.75C17.23 2.75 17.01 2.83 16.84 2.97L14.65 4.72C14.41 4.91 14.27 5.2 14.27 5.5C14.27 5.8 14.41 6.09 14.65 6.28L16.84 8.03C17.02 8.17 17.24 8.25 17.46 8.25H25.72C26.27 8.25 26.72 7.8 26.72 7.25V3.75C26.72 3.2 26.27 2.75 25.72 2.75H17.46Z" fill="url(#paint1_linear_8_1860)"/>
<path d="M23.5598 19.75H15.2998C13.9198 19.75 12.7998 18.63 12.7998 17.25V13.75C12.7998 12.37 13.9198 11.25 15.2998 11.25H23.5598C24.1298 11.25 24.6798 11.44 25.1198 11.8L27.3098 13.55C27.9098 14.03 28.2498 14.74 28.2498 15.5C28.2498 16.26 27.9098 16.98 27.3098 17.45L25.1198 19.2C24.6798 19.56 24.1298 19.75 23.5598 19.75ZM15.2998 12.75C14.7498 12.75 14.2998 13.2 14.2998 13.75V17.25C14.2998 17.8 14.7498 18.25 15.2998 18.25H23.5598C23.7898 18.25 24.0098 18.17 24.1798 18.03L26.3698 16.28C26.6098 16.09 26.7498 15.8 26.7498 15.5C26.7498 15.2 26.6098 14.91 26.3698 14.72L24.1798 12.97C23.9998 12.83 23.7798 12.75 23.5598 12.75H15.2998Z" fill="url(#paint2_linear_8_1860)"/>
<path d="M15.2998 12.75C14.7498 12.75 14.2998 13.2 14.2998 13.75V17.25C14.2998 17.8 14.7498 18.25 15.2998 18.25H23.5598C23.7898 18.25 24.0098 18.17 24.1798 18.03L26.3698 16.28C26.6098 16.09 26.7498 15.8 26.7498 15.5C26.7498 15.2 26.6098 14.91 26.3698 14.72L24.1798 12.97C23.9998 12.83 23.7798 12.75 23.5598 12.75H15.2998Z" fill="url(#paint3_linear_8_1860)"/>
<path d="M20.5 12.75C20.09 12.75 19.75 12.41 19.75 12V9C19.75 8.59 20.09 8.25 20.5 8.25C20.91 8.25 21.25 8.59 21.25 9V12C21.25 12.41 20.91 12.75 20.5 12.75Z" fill="url(#paint4_linear_8_1860)"/>
<path d="M20.5 22.75C20.09 22.75 19.75 22.41 19.75 22V19C19.75 18.59 20.09 18.25 20.5 18.25C20.91 18.25 21.25 18.59 21.25 19V22C21.25 22.41 20.91 22.75 20.5 22.75Z" fill="url(#paint5_linear_8_1860)"/>
<path d="M23.5 22.75H17.5C17.09 22.75 16.75 22.41 16.75 22C16.75 21.59 17.09 21.25 17.5 21.25H23.5C23.91 21.25 24.25 21.59 24.25 22C24.25 22.41 23.91 22.75 23.5 22.75Z" fill="url(#paint6_linear_8_1860)"/>
<path d="M2.74773 39.524H5.91574V41H0.887735V32.912H5.86773V34.388H2.74773V36.224H5.53173V37.688H2.74773V39.524ZM10.6551 37.964L12.6831 41H10.7751L9.75508 39.176L8.66308 41H6.76708L8.93908 37.952L6.89908 34.916H8.84308L9.82708 36.728L10.9191 34.916H12.8391L10.6551 37.964ZM16.6715 39.608C17.0555 39.608 17.3675 39.464 17.6075 39.176C17.8475 38.88 17.9675 38.48 17.9675 37.976C17.9675 37.424 17.8435 37.008 17.5955 36.728C17.3555 36.44 17.0475 36.296 16.6715 36.296C16.3035 36.296 15.9835 36.436 15.7115 36.716C15.4395 36.996 15.3035 37.388 15.3035 37.892C15.3035 38.412 15.4315 38.828 15.6875 39.14C15.9435 39.452 16.2715 39.608 16.6715 39.608ZM15.3035 34.916V35.852C15.7275 35.18 16.3395 34.844 17.1395 34.844C17.9235 34.844 18.5515 35.124 19.0235 35.684C19.5035 36.236 19.7435 36.988 19.7435 37.94C19.7435 38.844 19.5115 39.592 19.0475 40.184C18.5915 40.776 17.9555 41.072 17.1395 41.072C16.3155 41.072 15.7035 40.748 15.3035 40.1V43.244H13.5515V34.916H15.3035ZM20.8874 41V32.516H22.6394V41H20.8874ZM26.7718 41.096C25.8198 41.096 25.0838 40.812 24.5638 40.244C24.0438 39.668 23.7838 38.932 23.7838 38.036C23.7838 37.1 24.0558 36.332 24.5998 35.732C25.1438 35.124 25.8678 34.82 26.7718 34.82C27.7158 34.82 28.4478 35.112 28.9678 35.696C29.4878 36.28 29.7478 37.024 29.7478 37.928C29.7478 38.848 29.4838 39.608 28.9558 40.208C28.4358 40.8 27.7078 41.096 26.7718 41.096ZM26.7598 36.2C26.3758 36.2 26.0878 36.364 25.8958 36.692C25.7038 37.02 25.6078 37.444 25.6078 37.964C25.6078 38.484 25.7038 38.912 25.8958 39.248C26.0958 39.576 26.3918 39.74 26.7838 39.74C27.1678 39.74 27.4518 39.58 27.6358 39.26C27.8278 38.932 27.9238 38.508 27.9238 37.988C27.9238 36.796 27.5358 36.2 26.7598 36.2ZM32.5724 34.916V36.044C32.6844 35.692 32.8684 35.412 33.1244 35.204C33.3884 34.988 33.6924 34.88 34.0364 34.88C34.2284 34.88 34.3804 34.896 34.4924 34.928V36.584C34.3004 36.496 34.0804 36.452 33.8324 36.452C33.4564 36.452 33.1524 36.592 32.9204 36.872C32.6884 37.144 32.5724 37.508 32.5724 37.964V41H30.8204L30.8324 34.916H32.5724ZM38.7298 37.4V37.256C38.6738 36.544 38.3618 36.188 37.7938 36.188C37.5138 36.188 37.2658 36.292 37.0498 36.5C36.8338 36.7 36.6898 37 36.6178 37.4H38.7298ZM39.9898 39.188V40.652C39.5738 40.924 38.9378 41.06 38.0818 41.06C37.0818 41.06 36.3018 40.772 35.7418 40.196C35.1898 39.612 34.9138 38.864 34.9138 37.952C34.9138 36.984 35.1818 36.228 35.7178 35.684C36.2618 35.132 36.9298 34.856 37.7218 34.856C38.5378 34.856 39.1818 35.096 39.6538 35.576C40.1258 36.048 40.3618 36.756 40.3618 37.7C40.3618 37.884 40.3298 38.2 40.2658 38.648H36.6898C36.8098 38.984 37.0178 39.244 37.3138 39.428C37.6098 39.612 37.9658 39.704 38.3818 39.704C38.9978 39.704 39.5338 39.532 39.9898 39.188Z" fill="url(#paint7_linear_8_1860)"/>
<defs>
<linearGradient id="paint0_linear_8_1860" x1="12.77" y1="1.68966" x2="19.3895" y2="13.9443" gradientUnits="userSpaceOnUse">
<stop stop-color="#917AFD"/>
<stop offset="1" stop-color="#6246EA"/>
</linearGradient>
<linearGradient id="paint1_linear_8_1860" x1="12.77" y1="1.68966" x2="19.3895" y2="13.9443" gradientUnits="userSpaceOnUse">
<stop stop-color="#917AFD"/>
<stop offset="1" stop-color="#6246EA"/>
</linearGradient>
<linearGradient id="paint2_linear_8_1860" x1="12.7998" y1="11.6897" x2="19.4193" y2="23.9443" gradientUnits="userSpaceOnUse">
<stop stop-color="#917AFD"/>
<stop offset="1" stop-color="#6246EA"/>
</linearGradient>
<linearGradient id="paint3_linear_8_1860" x1="12.7998" y1="11.6897" x2="19.4193" y2="23.9443" gradientUnits="userSpaceOnUse">
<stop stop-color="#917AFD"/>
<stop offset="1" stop-color="#6246EA"/>
</linearGradient>
<linearGradient id="paint4_linear_8_1860" x1="19.75" y1="8.48276" x2="22.3012" y2="9.34892" gradientUnits="userSpaceOnUse">
<stop stop-color="#917AFD"/>
<stop offset="1" stop-color="#6246EA"/>
</linearGradient>
<linearGradient id="paint5_linear_8_1860" x1="19.75" y1="18.4828" x2="22.3012" y2="19.3489" gradientUnits="userSpaceOnUse">
<stop stop-color="#917AFD"/>
<stop offset="1" stop-color="#6246EA"/>
</linearGradient>
<linearGradient id="paint6_linear_8_1860" x1="16.75" y1="21.3276" x2="17.2782" y2="24.0174" gradientUnits="userSpaceOnUse">
<stop stop-color="#917AFD"/>
<stop offset="1" stop-color="#6246EA"/>
</linearGradient>
<linearGradient id="paint7_linear_8_1860" x1="-3.13283e-07" y1="28.9828" x2="13.3386" y2="58.2991" gradientUnits="userSpaceOnUse">
<stop stop-color="#917AFD"/>
<stop offset="1" stop-color="#6246EA"/>
</linearGradient>
</defs>
</svg>
