<svg width="14" height="15" viewBox="0 0 14 15" fill="none" xmlns="http://www.w3.org/2000/svg">
<path d="M7.40833 10.3467H7.81666C8.48749 10.3467 9.03582 9.79833 9.03582 9.1275V8.71916H7.40833V10.3467Z" fill="#7D7F88"/>
<path d="M4.96411 9.1275C4.96411 9.79833 5.51244 10.3467 6.18328 10.3467H6.59161V8.71916H4.96411V9.1275Z" fill="#7D7F88"/>
<path d="M4.96411 7.50001V7.90834H6.59161V6.28084H6.18328C5.51244 6.28084 4.96411 6.82917 4.96411 7.50001Z" fill="#7D7F88"/>
<path d="M11.6841 4.47833L8.32996 2.1275C7.41413 1.48583 6.01413 1.52083 5.13329 2.20333L2.21079 4.48417C1.62163 4.93917 1.16663 5.8725 1.16663 6.6075V10.6325C1.16663 12.12 2.37413 13.3333 3.85579 13.3333H10.1383C11.62 13.3333 12.8275 12.1258 12.8275 10.6383V6.68333C12.8333 5.89583 12.3258 4.9275 11.6841 4.47833ZM9.84663 9.1275C9.84663 10.2475 8.93079 11.1633 7.81079 11.1633H6.18329C5.06329 11.1633 4.14746 10.2533 4.14746 9.1275V7.5C4.14746 6.38 5.06329 5.46417 6.18329 5.46417H7.81079C8.93079 5.46417 9.84663 6.37417 9.84663 7.5V9.1275Z" fill="#7D7F88"/>
<path d="M7.81666 6.28084H7.40833V7.90834H9.03582V7.50001C9.03582 6.82917 8.48749 6.28084 7.81666 6.28084Z" fill="#7D7F88"/>
</svg>
