<svg width="16" height="18" viewBox="0 0 16 18" fill="none" xmlns="http://www.w3.org/2000/svg">
<path d="M15.1833 6.04168C14.3083 2.19168 10.95 0.458344 7.99996 0.458344C7.99996 0.458344 7.99996 0.458344 7.99162 0.458344C5.04996 0.458344 1.68329 2.18334 0.808291 6.03334C-0.166709 10.3333 2.46662 13.975 4.84996 16.2667C5.73329 17.1167 6.86662 17.5417 7.99996 17.5417C9.13329 17.5417 10.2666 17.1167 11.1416 16.2667C13.525 13.975 16.1583 10.3417 15.1833 6.04168ZM7.99996 10.2167C6.54996 10.2167 5.37496 9.04168 5.37496 7.59168C5.37496 6.14168 6.54996 4.96668 7.99996 4.96668C9.44996 4.96668 10.625 6.14168 10.625 7.59168C10.625 9.04168 9.44996 10.2167 7.99996 10.2167Z" fill="url(#paint0_linear_3_451)"/>
<defs>
<linearGradient id="paint0_linear_3_451" x1="0.599975" y1="1.34196" x2="16.383" y2="15.2608" gradientUnits="userSpaceOnUse">
<stop stop-color="#917AFD"/>
<stop offset="1" stop-color="#6246EA"/>
</linearGradient>
</defs>
</svg>
