<?xml version="1.0" encoding="utf-8"?><!-- Uploaded to: SVG Repo, www.svgrepo.com, Generator: SVG Repo Mixer Tools -->
<svg xmlns="http://www.w3.org/2000/svg" viewBox="0 0 24 24" fill="#0070ba">
  <path d="M7.076 21.337H2.47a.641.641 0 0 1-.633-.74L4.944.901C5.026.382 5.474 0 5.998 0h7.46c2.57 0 4.578.543 5.69 1.81 1.01 1.15 1.304 2.42 1.012 4.287-.023.143-.047.288-.077.437-.983 5.05-4.349 6.797-8.647 6.797h-2.19c-.524 0-.968.382-1.05.9l-1.12 7.106zm14.146-14.42a9.182 9.182 0 0 1-.31 1.445c-1.106 5.7-4.927 7.638-9.774 7.638h-2.48c-.315 0-.585.23-.633.546l-.951 6.03h3.557c.458 0 .85-.334.925-.788l.038-.207.732-4.64.047-.26c.075-.453.467-.788.925-.788h.583c3.76 0 6.703-1.527 7.56-5.946.357-1.842.174-3.382-.726-4.607-.282-.384-.65-.695-1.093-.913z"/>
</svg>