<svg width="33" height="47" viewBox="0 0 33 47" fill="none" xmlns="http://www.w3.org/2000/svg">
<path d="M17.12 20.81C16.78 20.93 16.22 20.93 15.88 20.81C12.98 19.82 6.5 15.69 6.5 8.69001C6.5 5.60001 8.99 3.10001 12.06 3.10001C13.88 3.10001 15.49 3.98001 16.5 5.34001C17.51 3.98001 19.13 3.10001 20.94 3.10001C24.01 3.10001 26.5 5.60001 26.5 8.69001C26.5 15.69 20.02 19.82 17.12 20.81Z" fill="url(#paint0_linear_8_1871)" stroke="url(#paint1_linear_8_1871)" stroke-width="1.5" stroke-linecap="round" stroke-linejoin="round"/>
<path d="M5.80824 33.272V35C5.16024 34.624 4.48824 34.436 3.79224 34.436C3.48024 34.436 3.24024 34.5 3.07224 34.628C2.91224 34.756 2.83224 34.92 2.83224 35.12C2.83224 35.32 2.93224 35.5 3.13224 35.66C3.33224 35.812 3.63224 35.976 4.03224 36.152C4.28024 36.264 4.48424 36.364 4.64424 36.452C4.81224 36.532 5.00024 36.648 5.20824 36.8C5.42424 36.944 5.59224 37.1 5.71224 37.268C5.84024 37.428 5.94824 37.628 6.03624 37.868C6.12424 38.108 6.16824 38.368 6.16824 38.648C6.16824 39.376 5.90024 39.968 5.36424 40.424C4.82824 40.872 4.11624 41.096 3.22824 41.096C2.27624 41.096 1.50024 40.928 0.900235 40.592V38.732C1.62824 39.26 2.40424 39.524 3.22824 39.524C3.50824 39.524 3.74024 39.452 3.92424 39.308C4.10824 39.156 4.20024 38.96 4.20024 38.72C4.20024 38.64 4.18824 38.564 4.16424 38.492C4.14024 38.42 4.09624 38.352 4.03224 38.288C3.96824 38.224 3.90424 38.172 3.84024 38.132C3.78424 38.084 3.69624 38.032 3.57624 37.976C3.46424 37.912 3.36824 37.86 3.28824 37.82C3.20824 37.78 3.08824 37.724 2.92824 37.652C2.77624 37.58 2.65224 37.524 2.55624 37.484C2.03624 37.244 1.61624 36.948 1.29624 36.596C0.984235 36.244 0.828235 35.776 0.828235 35.192C0.828235 34.496 1.08424 33.936 1.59624 33.512C2.10824 33.08 2.81624 32.864 3.72024 32.864C4.52824 32.864 5.22424 33 5.80824 33.272ZM10.1963 38.504H9.6323C9.3363 38.504 9.1083 38.568 8.9483 38.696C8.7883 38.824 8.7083 38.988 8.7083 39.188C8.7083 39.596 8.9443 39.8 9.4163 39.8C9.6643 39.8 9.8563 39.724 9.9923 39.572C10.1283 39.42 10.1963 39.212 10.1963 38.948V38.504ZM7.3523 36.788V35.216C7.8323 34.944 8.5243 34.808 9.4283 34.808C10.2923 34.808 10.9363 34.996 11.3603 35.372C11.7843 35.74 11.9963 36.316 11.9963 37.1V41H10.2803V40.256C10.0243 40.776 9.5203 41.036 8.7683 41.036C8.1763 41.036 7.7123 40.868 7.3763 40.532C7.0483 40.196 6.8843 39.776 6.8843 39.272C6.8843 38.688 7.0963 38.236 7.5203 37.916C7.9523 37.588 8.5883 37.424 9.4283 37.424H10.1963V37.004C10.1963 36.492 9.8563 36.236 9.1763 36.236C8.5203 36.236 7.9123 36.42 7.3523 36.788ZM14.8958 41L12.6518 34.916H14.4878L15.2798 37.508C15.3998 37.908 15.5038 38.288 15.5918 38.648C15.6798 39 15.7358 39.256 15.7598 39.416L15.8078 39.644C15.8798 39.124 16.0598 38.412 16.3478 37.508L17.1638 34.916H18.9638L16.6958 41H14.8958ZM23.2014 37.4V37.256C23.1454 36.544 22.8334 36.188 22.2654 36.188C21.9854 36.188 21.7374 36.292 21.5214 36.5C21.3054 36.7 21.1614 37 21.0894 37.4H23.2014ZM24.4614 39.188V40.652C24.0454 40.924 23.4094 41.06 22.5534 41.06C21.5534 41.06 20.7734 40.772 20.2134 40.196C19.6614 39.612 19.3854 38.864 19.3854 37.952C19.3854 36.984 19.6534 36.228 20.1894 35.684C20.7334 35.132 21.4014 34.856 22.1934 34.856C23.0094 34.856 23.6534 35.096 24.1254 35.576C24.5974 36.048 24.8334 36.756 24.8334 37.7C24.8334 37.884 24.8014 38.2 24.7374 38.648H21.1614C21.2814 38.984 21.4894 39.244 21.7854 39.428C22.0814 39.612 22.4374 39.704 22.8534 39.704C23.4694 39.704 24.0054 39.532 24.4614 39.188ZM28.8198 39.608C29.2198 39.608 29.5438 39.452 29.7918 39.14C30.0398 38.828 30.1638 38.412 30.1638 37.892C30.1638 37.388 30.0278 36.996 29.7558 36.716C29.4918 36.436 29.1758 36.296 28.8078 36.296C28.4398 36.296 28.1278 36.444 27.8718 36.74C27.6238 37.036 27.4998 37.448 27.4998 37.976C27.4998 38.464 27.6278 38.86 27.8838 39.164C28.1398 39.46 28.4518 39.608 28.8198 39.608ZM30.1638 32.516H31.9158V41H30.1638V40.052C29.7558 40.732 29.1478 41.072 28.3398 41.072C27.5478 41.072 26.9118 40.764 26.4318 40.148C25.9598 39.532 25.7238 38.796 25.7238 37.94C25.7238 36.98 25.9718 36.224 26.4678 35.672C26.9638 35.12 27.5918 34.844 28.3518 34.844C29.1438 34.844 29.7478 35.18 30.1638 35.852V32.516Z" fill="url(#paint2_linear_8_1871)"/>
<defs>
<linearGradient id="paint0_linear_8_1871" x1="6.5" y1="4.0207" x2="22.9256" y2="22.8182" gradientUnits="userSpaceOnUse">
<stop stop-color="#917AFD"/>
<stop offset="1" stop-color="#6246EA"/>
</linearGradient>
<linearGradient id="paint1_linear_8_1871" x1="6.5" y1="4.0207" x2="22.9256" y2="22.8182" gradientUnits="userSpaceOnUse">
<stop stop-color="#917AFD"/>
<stop offset="1" stop-color="#6246EA"/>
</linearGradient>
<linearGradient id="paint2_linear_8_1871" x1="-2.52155e-07" y1="28.9828" x2="15.1589" y2="55.7989" gradientUnits="userSpaceOnUse">
<stop stop-color="#917AFD"/>
<stop offset="1" stop-color="#6246EA"/>
</linearGradient>
</defs>
</svg>
