<svg width="400" height="600" viewBox="0 0 400 600" fill="none" xmlns="http://www.w3.org/2000/svg">
<path d="M282.149 524.682L199.851 307.212L0 216.824V524.682H282.149Z" fill="#31448F"/>
<path d="M400 524.682V404.918V397.17L199.653 307.32L282.149 524.682H400Z" fill="#0061A8"/>
<path d="M0 216.824L199.653 307.32L117.257 90.2807L0 216.824Z" fill="#7BC9EB"/>
<path d="M400 216.824L200.248 0L169.25 33.5728L117.158 90.3883L199.653 307.32L400 397.17V216.824Z" fill="#23A4DE"/>
<path d="M34.272 600C27.616 600 21.696 599.086 16.512 597.258C11.328 595.376 7.264 592.822 4.32 589.596C1.44 586.316 0 582.606 0 578.465C0 574.917 0.864 571.771 2.592 569.029C4.384 566.233 6.816 563.867 9.888 561.931C13.024 559.996 16.608 558.517 20.64 557.495C24.672 556.42 28.928 555.882 33.408 555.882C37.632 555.882 41.6 556.393 45.312 557.415C49.024 558.382 52.288 559.78 55.104 561.609C57.92 563.437 60.096 565.614 61.632 568.142C63.232 570.615 64 573.384 63.936 576.449L63.84 580.804H9.216L7.008 574.191H55.296L53.856 574.755V572.82C53.536 570.991 52.352 569.378 50.304 567.98C48.32 566.582 45.824 565.507 42.816 564.754C39.872 563.948 36.736 563.544 33.408 563.544C29.056 563.544 25.088 564.001 21.504 564.915C17.92 565.83 15.072 567.335 12.96 569.432C10.848 571.529 9.792 574.352 9.792 577.901C9.792 580.804 10.912 583.331 13.152 585.482C15.392 587.633 18.496 589.3 22.464 590.483C26.432 591.666 31.008 592.257 36.192 592.257C41.376 592.257 45.664 591.693 49.056 590.563C52.448 589.434 55.2 588.359 57.312 587.337L61.632 593.628C59.712 594.704 57.28 595.752 54.336 596.774C51.456 597.742 48.288 598.521 44.832 599.113C41.376 599.704 37.856 600 34.272 600Z" fill="white"/>
<path d="M224 600V548.145H233.888V562.763L230.24 562.961C231.712 560.459 233.6 557.99 235.904 555.553C238.272 553.117 241.056 551.109 244.256 549.528C247.52 547.882 251.168 547.059 255.2 547.059C260.512 547.059 264.928 548.08 268.448 550.121C272.032 552.096 274.72 554.796 276.512 558.22C278.304 561.578 279.2 565.299 279.2 569.381V600H269.312V571.06C269.312 568.163 268.544 565.628 267.008 563.455C265.536 561.282 263.552 559.603 261.056 558.418C258.624 557.166 255.904 556.541 252.896 556.541C250.144 556.541 247.584 557.068 245.216 558.121C242.912 559.109 240.896 560.426 239.168 562.072C237.504 563.652 236.192 565.364 235.232 567.208C234.336 569.052 233.888 570.83 233.888 572.542V600H228.992C227.328 600 226.08 600 225.248 600C224.416 600 224 600 224 600Z" fill="white"/>
<path d="M304.224 600V538.235H314.112V600H304.224ZM288 561.901V552.937H333.504V561.901H288Z" fill="white"/>
<path d="M372.608 600C366.72 600 361.312 599.257 356.384 597.77C351.456 596.283 347.328 593.762 344 590.207L350.72 583.904C353.28 586.296 356.32 588.203 359.84 589.625C363.36 590.983 367.232 591.661 371.456 591.661C373.12 591.661 374.848 591.597 376.64 591.467C378.496 591.274 380.256 590.95 381.92 590.498C383.584 590.045 384.928 589.399 385.952 588.559C386.976 587.718 387.488 586.619 387.488 585.262C387.488 583.064 385.664 581.48 382.016 580.511C380.16 579.994 378.176 579.541 376.064 579.153C373.952 578.701 371.712 578.313 369.344 577.99C365.44 577.279 361.824 576.535 358.496 575.76C355.232 574.919 352.48 573.723 350.24 572.172C348.64 571.008 347.392 569.586 346.496 567.906C345.6 566.225 345.152 564.189 345.152 561.797C345.152 559.535 345.792 557.498 347.072 555.689C348.416 553.879 350.24 552.327 352.544 551.034C354.848 549.742 357.536 548.772 360.608 548.125C363.744 547.414 367.136 547.059 370.784 547.059C373.728 547.059 376.832 547.35 380.096 547.932C383.424 548.449 386.592 549.321 389.6 550.55C392.608 551.713 395.136 553.264 397.184 555.204L392 562.088C390.208 560.795 388.096 559.632 385.664 558.597C383.232 557.563 380.736 556.755 378.176 556.173C375.616 555.592 373.152 555.301 370.784 555.301C369.184 555.301 367.456 555.398 365.6 555.592C363.808 555.721 362.112 556.012 360.512 556.464C358.912 556.917 357.6 557.563 356.576 558.403C355.552 559.179 355.04 560.181 355.04 561.409C355.04 562.185 355.264 562.896 355.712 563.542C356.224 564.124 356.896 564.674 357.728 565.191C359.328 566.16 361.408 566.968 363.968 567.615C366.592 568.197 369.44 568.746 372.512 569.263C376.032 569.78 379.488 570.459 382.88 571.299C386.272 572.075 389.184 573.174 391.616 574.596C393.408 575.63 394.816 576.859 395.84 578.281C396.928 579.703 397.472 581.416 397.472 583.42C397.472 587.04 396.352 590.078 394.112 592.534C391.872 594.99 388.864 596.865 385.088 598.158C381.376 599.386 377.216 600 372.608 600Z" fill="white"/>
<path d="M178.272 600C171.616 600 165.696 598.903 160.512 596.709C155.328 594.451 151.264 591.386 148.32 587.515C145.44 583.579 144 579.127 144 574.159C144 569.9 144.864 566.125 146.592 562.835C148.384 559.48 150.816 556.641 153.888 554.318C157.024 551.995 160.608 550.221 164.64 548.995C168.672 547.704 172.928 547.059 177.408 547.059C181.632 547.059 185.6 547.672 189.312 548.898C193.024 550.059 196.288 551.737 199.104 553.931C201.92 556.124 204.096 558.738 205.632 561.77C207.232 564.738 208 568.061 207.936 571.739L207.84 576.965H153.216L151.008 569.029H199.296L197.856 569.706V567.384C197.536 565.19 196.352 563.254 194.304 561.577C192.32 559.899 189.824 558.609 186.816 557.705C183.872 556.737 180.736 556.253 177.408 556.253C173.056 556.253 169.088 556.802 165.504 557.899C161.92 558.996 159.072 560.802 156.96 563.319C154.848 565.835 153.792 569.223 153.792 573.481C153.792 576.965 154.912 579.998 157.152 582.579C159.392 585.16 162.496 587.16 166.464 588.579C170.432 589.999 175.008 590.709 180.192 590.709C185.376 590.709 189.664 590.031 193.056 588.676C196.448 587.321 199.2 586.031 201.312 584.805L205.632 592.354C203.712 593.645 201.28 594.903 198.336 596.129C195.456 597.29 192.288 598.226 188.832 598.935C185.376 599.645 181.856 600 178.272 600Z" fill="white"/>
<path d="M71.9999 599.906V533.824H111.264C115.232 533.824 118.848 534.736 122.112 536.561C125.44 538.324 128.096 540.747 130.08 543.83C132.064 546.914 133.056 550.344 133.056 554.12C133.056 558.085 131.968 561.704 129.792 564.977C127.616 568.186 124.736 570.767 121.152 572.718C117.568 574.606 113.632 575.55 109.344 575.55H82.3679V599.906H71.9999ZM124.032 599.906L101.184 570.074L112.224 567.714L136.992 600L124.032 599.906ZM82.3679 565.732H108.384C110.816 565.732 113.056 565.197 115.104 564.127C117.216 563.057 118.88 561.641 120.096 559.879C121.376 558.117 122.016 556.197 122.016 554.12C122.016 552.169 121.376 550.407 120.096 548.834C118.88 547.26 117.216 546.002 115.104 545.058C113.056 544.114 110.816 543.642 108.384 543.642H82.3679V565.732Z" fill="white"/>
</svg>
