<svg width="276" height="119" viewBox="0 0 276 119" fill="none" xmlns="http://www.w3.org/2000/svg">
<path d="M124 60.7645C124 53.4435 120.658 46.523 114.926 41.9701L67.0463 3.9467C64.1355 1.63507 60.016 1.63286 57.1027 3.94136L52.4673 7.61444L36.3187 20.5004L61.8924 69.7014L124 90.0798V60.7645Z" fill="#23A4DE"/>
<path d="M0 49.1768L61.8926 69.7016L36.3496 20.4762L0 49.1768Z" fill="#7BC9EB"/>
<path d="M124 119V91.837V90.0798L61.8924 69.7014L87.4661 119H124Z" fill="#0061A8"/>
<path d="M87.4663 119L61.954 69.677L0 49.1766V110C0 114.971 4.02944 119 9 119H87.4663Z" fill="#31448F"/>
<path d="M105.714 82.2339C104.284 82.2339 103.017 83.0187 101.913 84.5884C100.809 86.0977 100.074 88.3616 99.7059 91.3801H110.496V90.2934C110.21 84.9204 108.616 82.2339 105.714 82.2339ZM116.934 115.921C114.808 117.974 111.375 119 106.634 119C101.893 119 98.0914 116.827 95.2303 112.48C92.4101 108.073 91 102.337 91 95.2741C91 88.1503 92.3692 82.5358 95.1077 78.4305C97.8871 74.2649 101.32 72.1821 105.408 72.1821C109.536 72.1821 112.806 73.9932 115.217 77.6155C117.629 81.1774 118.834 86.5203 118.834 93.644C118.834 95.0326 118.671 97.4172 118.344 100.798H100.074C100.687 103.334 101.75 105.296 103.262 106.684C104.774 108.073 106.593 108.767 108.718 108.767C111.866 108.767 114.604 107.469 116.934 104.873V115.921Z" fill="#F3F3F5"/>
<path d="M134.971 119L124 119V59.5C130.104 59.5 133.527 59.5 139.631 59.5C144.249 59.5 146.721 61.3777 149.5 65C152.32 68.6223 153.5 72.6349 153.5 78.4306C153.5 87.124 152.628 91.7726 147.601 95.093L158.5 119H146.5L137.853 97.3569H134.971V119ZM139.631 68.8315H134.971V86.0373H139.447C143.534 86.0373 145.578 83.0791 145.578 77.1628C145.578 74.5668 145.046 72.5444 143.984 71.0955C142.921 69.5862 141.47 68.8315 139.631 68.8315Z" fill="#F3F3F5"/>
<path d="M176.064 82.2339C174.634 82.2339 173.367 83.0187 172.263 84.5884C171.16 86.0977 170.424 88.3616 170.056 91.3801H180.846V90.2934C180.56 84.9204 178.966 82.2339 176.064 82.2339ZM187.284 115.921C185.159 117.974 181.741 119 177 119C172.259 119 168.442 116.827 165.58 112.48C162.76 108.073 161.35 102.337 161.35 95.2741C161.35 88.1503 162.719 82.5358 165.458 78.4305C168.237 74.2649 171.67 72.1821 175.758 72.1821C179.886 72.1821 183.156 73.9932 185.567 77.6155C187.979 81.1774 189.185 86.5203 189.185 93.644C189.185 95.0326 189.021 97.4172 188.694 100.798H170.424C171.037 103.334 172.1 105.296 173.612 106.684C175.124 108.073 176.943 108.767 179.068 108.767C182.216 108.767 184.954 107.469 187.284 104.873V115.921Z" fill="#F3F3F5"/>
<path d="M224.082 119H215.131V91.199C215.131 88.4823 214.702 86.4297 213.843 85.0412C212.985 83.5923 211.759 82.8678 210.165 82.8678C208.571 82.8678 207.222 83.8337 206.118 85.7656C205.056 87.6371 204.524 90.4746 204.524 94.2779V119H195.573V72.6349H204.524V80.4228C205.301 77.8872 206.486 75.8949 208.08 74.446C209.715 72.9367 211.657 72.1821 213.905 72.1821C217.093 72.1821 219.586 73.6008 221.384 76.4383C223.183 79.2153 224.082 83.3206 224.082 88.754V119Z" fill="#F3F3F5"/>
<path d="M243.154 119C236.083 119 232.547 113.778 232.547 103.334V82.3245H228.072V72.6349H232.547V61.7681H241.499V72.6349H248.733V82.3245H241.499V103.424C241.499 105.054 241.805 106.292 242.418 107.137C243.072 107.982 244.053 108.405 245.361 108.405C246.71 108.405 248.018 107.801 249.285 106.594V117.551C247.773 118.517 245.729 119 243.154 119Z" fill="#F3F3F5"/>
<path d="M276 104.692C276 109.22 274.896 112.721 272.689 115.197C270.482 117.672 267.519 119 263.799 119C260.121 119 256.534 117.371 254 115.5V104.692C256.82 107.59 260.284 108.676 263.432 108.676C265.68 108.676 266.804 107.62 266.804 105.507C266.804 104.36 266.354 103.394 265.455 102.609C264.801 102.066 263.922 101.462 262.818 100.798C261.715 100.074 260.959 99.5604 260.55 99.2586C256.422 96.3607 254.358 92.014 254.358 86.2184C254.358 81.7509 255.502 78.2796 257.791 75.8044C260.121 73.3292 262.941 72.0916 266.252 72.0916C269.563 72.0916 272.281 72.7255 274.406 73.9932V85.3128C272.24 83.4413 269.706 82.5056 266.804 82.5056C265.741 82.5056 264.923 82.8376 264.351 83.5017C263.779 84.1054 263.493 84.7997 263.493 85.5845C263.493 86.309 263.595 86.9127 263.799 87.3956C264.004 87.8786 264.331 88.3314 264.78 88.754C265.271 89.1766 265.72 89.569 266.129 89.9312C266.579 90.2331 267.171 90.6255 267.907 91.1085C270.687 92.8592 272.73 94.8213 274.038 96.9946C275.346 99.168 276 101.734 276 104.692Z" fill="#F3F3F5"/>
</svg>
