<svg width="528" height="247" viewBox="0 0 528 247" fill="none" xmlns="http://www.w3.org/2000/svg">
<path d="M507.506 71.6081C507.506 75.9248 503.776 79.4567 499.216 79.4567H486.513C481.954 79.4567 478.223 75.9248 478.223 71.6081V27.8972C478.223 23.5804 481.954 20.0486 486.513 20.0486H499.216C503.776 20.0486 507.506 23.5804 507.506 27.8972V71.6081Z" fill="#6069E8"/>
<path d="M451.721 243.031V201.619H505.562L458.862 245.832C456.227 248.327 451.721 246.56 451.721 243.031Z" fill="#6069E8"/>
<path d="M508.446 199.049H451.721V204.012H502.931L508.446 199.049Z" fill="#6069E8"/>
<path d="M520.108 76.4459L442.625 3.08296C438.285 -1.02765 431.191 -1.02765 426.85 3.08296L349.368 76.4459C345.017 80.5554 341.474 88.6632 341.474 94.4695V107.392C382.39 136.174 433.066 153.196 487.944 153.196C501.597 153.196 514.963 152.134 528 150.108V94.4695C528 88.6632 524.448 80.5554 520.108 76.4459Z" fill="#6069E8"/>
<path d="M487.944 165.077C433.066 165.077 382.39 148.056 341.474 119.274V189.08C341.474 194.884 346.495 199.639 352.629 199.639H516.847C522.978 199.639 528 194.884 528 189.08V161.989C514.963 164.016 501.597 165.077 487.944 165.077Z" fill="#6069E8"/>
<path d="M63.0468 96.609C63.3899 99.6136 63.1612 102.705 62.3611 105.886C61.5985 108.979 60.494 111.232 59.0466 112.644C53.1792 118.21 45.4832 125.545 35.9593 134.643C24.1486 145.953 16.491 153.285 12.9862 156.642C15.9953 168.834 20.8527 174.93 27.5587 174.93C32.0162 174.93 36.3208 171.882 40.4739 165.786C44.5499 159.868 47.7118 152.181 49.9602 142.727C51.3319 137.25 53.2748 134.51 55.7891 134.51C57.5796 134.51 58.8368 136.233 59.561 139.679C60.2842 143.038 60.17 146.703 59.2181 150.678C55.7509 164.991 50.9506 176.566 44.817 185.4C38.5308 194.5 32.0348 199.049 25.33 199.049C16.7194 199.049 10.0146 191.982 5.2142 177.846C0.413837 163.711 -1.07199 146.659 0.756693 126.692C2.58538 106.726 7.19466 89.6744 14.5863 75.5381C21.977 61.4036 29.9775 54.3345 38.5879 54.3345C44.7975 54.3345 50.112 58.2665 54.532 66.129C58.9126 73.8153 61.7512 83.9759 63.0468 96.609ZM36.3022 79.116C30.5874 79.116 25.2916 83.8 20.4152 93.1634C15.5382 102.529 12.4905 113.837 11.2718 127.089C11.0807 129.475 10.9476 131.817 10.8718 134.113L50.5317 96.2115C47.4458 84.8145 42.7026 79.116 36.3022 79.116Z" fill="#6069E8"/>
<path d="M113.679 162.473C114.631 152.049 113.85 143.124 111.336 135.703C109.05 128.901 105.907 125.234 101.907 124.704H83.2767L77.562 186.989C77.2567 190.348 76.5137 193.174 75.3334 195.471C74.0762 197.856 72.7235 199.049 71.2758 199.049H71.1616C69.7133 199.049 68.6088 197.856 67.8471 195.471C67.0087 193.174 66.7417 190.348 67.047 186.989L79.848 47.7083C81.0283 34.5449 84.0571 23.324 88.9344 14.0474C93.8105 4.68399 99.0868 0 104.764 0H112.193C119.622 0 125.394 6.096 129.509 18.2883C133.661 30.4803 134.938 45.1902 133.338 62.4182C131.775 79.5592 127.813 94.2235 121.451 106.416C120.27 108.625 119.108 110.613 117.965 112.379C118.841 114.234 119.641 116.268 120.365 118.475C124.48 130.58 125.756 145.245 124.194 162.473L121.908 186.989C121.603 190.348 120.841 193.174 119.622 195.471C118.365 197.856 117.031 199.049 115.622 199.049H115.508C114.098 199.049 112.993 197.856 112.193 195.471C111.355 193.174 111.088 190.348 111.393 186.989L113.679 162.473ZM103.05 100.187C107.545 100.187 111.716 96.5219 115.565 89.1876C119.451 81.7665 121.87 72.844 122.822 62.4182C123.774 51.9054 122.994 42.9373 120.479 35.516C117.965 28.1838 114.459 24.5168 109.964 24.5168H103.393C100.078 24.5168 97.2395 26.726 94.8777 31.1428C93.0488 34.5885 91.7345 38.6966 90.9343 43.4673C90.7059 44.7057 90.4773 46.5155 90.2486 48.9008L85.5627 100.187H103.05Z" fill="#6069E8"/>
<path d="M197.17 96.609C197.514 99.6136 197.285 102.705 196.485 105.886C195.722 108.979 194.618 111.232 193.17 112.644C187.303 118.21 179.607 125.545 170.083 134.643C158.272 145.953 150.615 153.285 147.11 156.642C150.119 168.834 154.976 174.93 161.682 174.93C166.14 174.93 170.444 171.882 174.598 165.786C178.674 159.868 181.835 152.181 184.084 142.727C185.456 137.25 187.398 134.51 189.913 134.51C191.703 134.51 192.96 136.233 193.685 139.679C194.408 143.038 194.294 146.703 193.342 150.678C189.875 164.991 185.074 176.566 178.941 185.4C172.654 194.5 166.158 199.049 159.454 199.049C150.843 199.049 144.138 191.982 139.338 177.846C134.537 163.711 133.052 146.659 134.88 126.692C136.709 106.726 141.318 89.6744 148.71 75.5381C156.101 61.4036 164.101 54.3345 172.712 54.3345C178.921 54.3345 184.236 58.2665 188.656 66.129C193.036 73.8153 195.875 83.9759 197.17 96.609ZM170.426 79.116C164.711 79.116 159.415 83.8 154.539 93.1634C149.662 102.529 146.614 113.837 145.395 127.089C145.204 129.475 145.071 131.817 144.995 134.113L184.655 96.2115C181.569 84.8145 176.826 79.116 170.426 79.116Z" fill="#6069E8"/>
<path d="M211.172 186.99C210.866 190.348 210.105 193.175 208.886 195.471C207.629 197.857 206.295 199.049 204.886 199.049H204.714C203.304 199.049 202.2 197.857 201.4 195.471C200.561 193.175 200.294 190.348 200.6 186.99L207.286 114.5C208.809 97.8907 212.638 83.7109 218.772 71.96C224.906 60.211 231.554 54.3345 238.717 54.3345C245.84 54.3345 251.403 60.211 255.404 71.96C259.404 83.7109 260.641 97.8907 259.118 114.5L252.432 186.99C252.127 190.348 251.365 193.175 250.146 195.471C248.926 197.857 247.593 199.049 246.146 199.049H246.031C244.583 199.049 243.46 197.857 242.66 195.471C241.821 193.175 241.554 190.348 241.86 186.99L248.546 114.5C249.422 104.693 248.698 96.3007 246.374 89.3205C244.012 82.3422 240.717 78.851 236.488 78.851C232.221 78.851 228.259 82.3422 224.601 89.3205C220.981 96.3007 218.734 104.693 217.858 114.5L211.172 186.99Z" fill="#6069E8"/>
<path d="M286.377 0C287.786 0 288.91 1.14944 289.749 3.44564C290.549 5.83099 290.796 8.70301 290.492 12.0598L286.606 54.3343H296.892C298.301 54.3343 299.407 55.5271 300.207 57.9125C301.044 60.2978 301.311 63.1698 301.007 66.5263L300.95 66.7914C300.644 70.15 299.883 72.9765 298.664 75.2727C297.407 77.6583 296.072 78.8509 294.663 78.8509H284.377L276.776 161.412C276.471 165.036 276.738 168.128 277.576 170.689C278.453 173.253 279.691 174.532 281.291 174.532H285.863C287.272 174.532 288.396 175.725 289.235 178.111C290.034 180.496 290.282 183.368 289.977 186.724L289.92 186.989C289.615 190.348 288.853 193.174 287.634 195.471C286.377 197.856 285.043 199.049 283.634 199.049H279.062C274.566 199.049 271.062 195.384 268.547 188.05C266.033 180.628 265.251 171.749 266.204 161.412L279.92 12.0598C280.224 8.70303 281.005 5.831 282.262 3.44565C283.481 1.14945 284.796 1.45015e-05 286.206 1.45015e-05L286.377 0Z" fill="#6069E8"/>
<path d="M323.866 78.851C321.731 78.851 319.751 80.5739 317.922 84.0195C316.131 87.554 315.008 91.7514 314.551 96.609C313.941 103.5 314.874 108.669 317.351 112.114C318.151 113.174 321.237 115.473 326.609 119.006C330.646 121.834 333.447 125.455 335.009 129.872C337.257 136.057 337.847 145.025 336.781 156.774C335.714 168.436 333.028 178.421 328.723 186.725C324.38 194.941 319.694 199.049 314.665 199.049H299.75C298.34 199.049 297.235 197.857 296.435 195.471C295.597 193.175 295.33 190.348 295.635 186.99L295.692 186.725C295.997 183.368 296.778 180.496 298.035 178.111C299.254 175.725 300.568 174.533 301.978 174.533H317.465C319.598 174.533 321.58 172.81 323.409 169.364C325.199 165.918 326.323 161.723 326.78 156.774C327.389 150.237 326.418 145.377 323.866 142.197C323.294 141.491 320.208 139.194 314.608 135.306C310.645 132.39 307.864 128.679 306.265 124.174C304.055 117.726 303.483 108.536 304.55 96.609C305.616 84.947 308.302 75.0078 312.608 66.7915C316.951 58.4882 321.637 54.3345 326.666 54.3345H337.181C338.628 54.3345 339.753 55.5273 340.552 57.9126C341.39 60.298 341.657 63.17 341.353 66.5265L341.295 66.7915C340.99 70.1502 340.228 72.9767 339.009 75.2729C337.752 77.6585 336.4 78.851 334.952 78.851H323.866Z" fill="#6069E8"/>
</svg>
