<svg width="25" height="47" viewBox="0 0 25 47" fill="none" xmlns="http://www.w3.org/2000/svg">
<path d="M9 19H8.5C4.5 19 2.5 18 2.5 13V8C2.5 4 4.5 2 8.5 2H16.5C20.5 2 22.5 4 22.5 8V13C22.5 17 20.5 19 16.5 19H16C15.69 19 15.39 19.15 15.2 19.4L13.7 21.4C13.04 22.28 11.96 22.28 11.3 21.4L9.8 19.4C9.64 19.18 9.27 19 9 19Z" stroke="#7D7F88" stroke-width="1.5" stroke-miterlimit="10" stroke-linecap="round" stroke-linejoin="round"/>
<path d="M7.5 8H17.5" stroke="#7D7F88" stroke-width="1.5" stroke-linecap="round" stroke-linejoin="round"/>
<path d="M7.5 13H13.5" stroke="#7D7F88" stroke-width="1.5" stroke-linecap="round" stroke-linejoin="round"/>
<path d="M7.13422 33.248V34.46C6.78222 34.268 6.46222 34.136 6.17422 34.064C5.89422 33.984 5.53422 33.944 5.09422 33.944C4.28622 33.944 3.61022 34.22 3.06622 34.772C2.53022 35.316 2.26222 36.04 2.26222 36.944C2.26222 37.864 2.53022 38.596 3.06622 39.14C3.60222 39.684 4.31022 39.956 5.19022 39.956C5.96622 39.956 6.61822 39.756 7.14622 39.356V40.604C6.65022 40.932 5.96222 41.096 5.08222 41.096C3.87422 41.096 2.88622 40.72 2.11822 39.968C1.35022 39.216 0.966219 38.208 0.966219 36.944C0.966219 35.72 1.35022 34.724 2.11822 33.956C2.89422 33.188 3.87422 32.804 5.05822 32.804C5.92222 32.804 6.61422 32.952 7.13422 33.248ZM9.62384 32.516V35.96C9.96784 35.208 10.5958 34.832 11.5078 34.832C12.0998 34.832 12.5758 35.016 12.9358 35.384C13.2958 35.752 13.4758 36.264 13.4758 36.92V41H12.2998V37.16C12.2998 36.744 12.1918 36.424 11.9758 36.2C11.7678 35.968 11.4918 35.852 11.1478 35.852C10.7478 35.852 10.3918 36.004 10.0798 36.308C9.77584 36.612 9.62384 37.076 9.62384 37.7V41H8.44784V32.516H9.62384ZM18.2012 38.288H17.2892C16.8412 38.288 16.5012 38.376 16.2692 38.552C16.0452 38.728 15.9332 38.952 15.9332 39.224C15.9332 39.504 16.0212 39.724 16.1972 39.884C16.3732 40.044 16.6292 40.124 16.9652 40.124C17.3492 40.124 17.6492 40.02 17.8652 39.812C18.0892 39.596 18.2012 39.316 18.2012 38.972V38.288ZM15.1412 36.368V35.228C15.6132 34.956 16.2372 34.82 17.0132 34.82C18.6052 34.82 19.4012 35.592 19.4012 37.136V41H18.2372V40.28C17.9252 40.792 17.3772 41.048 16.5932 41.048C16.0172 41.048 15.5532 40.884 15.2012 40.556C14.8572 40.22 14.6852 39.796 14.6852 39.284C14.6852 38.7 14.9052 38.248 15.3452 37.928C15.7852 37.6 16.4012 37.436 17.1932 37.436H18.2012V37.088C18.2012 36.672 18.1012 36.36 17.9012 36.152C17.7012 35.936 17.3692 35.828 16.9052 35.828C16.2572 35.828 15.6692 36.008 15.1412 36.368ZM22.4495 35.828V39.176C22.4495 39.76 22.7295 40.052 23.2895 40.052C23.6175 40.052 23.8935 39.964 24.1175 39.788V40.844C23.8535 40.988 23.5295 41.06 23.1455 41.06C21.8895 41.06 21.2615 40.424 21.2615 39.152V35.828H20.3135V34.916H21.2615V33.428H22.4495V34.916H24.0455V35.828H22.4495Z" fill="#7D7F88"/>
</svg>
