<svg width="39" height="47" viewBox="0 0 39 47" fill="none" xmlns="http://www.w3.org/2000/svg">
<path d="M24.72 9.75H16.46C15.9 9.75 15.34 9.56001 14.9 9.20001L12.71 7.45001C12.11 6.97001 11.77 6.26 11.77 5.5C11.77 4.74 12.11 4.01999 12.71 3.54999L14.9 1.79999C15.34 1.44999 15.9 1.25 16.46 1.25H24.72C26.1 1.25 27.22 2.37 27.22 3.75V7.25C27.22 8.63 26.1 9.75 24.72 9.75ZM16.46 2.75C16.23 2.75 16.01 2.83 15.84 2.97L13.65 4.72C13.41 4.91 13.27 5.2 13.27 5.5C13.27 5.8 13.41 6.09 13.65 6.28L15.84 8.03C16.02 8.17 16.24 8.25 16.46 8.25H24.72C25.27 8.25 25.72 7.8 25.72 7.25V3.75C25.72 3.2 25.27 2.75 24.72 2.75H16.46Z" fill="#7D8588"/>
<path d="M22.5598 19.75H14.2998C12.9198 19.75 11.7998 18.63 11.7998 17.25V13.75C11.7998 12.37 12.9198 11.25 14.2998 11.25H22.5598C23.1298 11.25 23.6798 11.44 24.1198 11.8L26.3098 13.55C26.9098 14.03 27.2498 14.74 27.2498 15.5C27.2498 16.26 26.9098 16.98 26.3098 17.45L24.1198 19.2C23.6798 19.56 23.1298 19.75 22.5598 19.75ZM14.2998 12.75C13.7498 12.75 13.2998 13.2 13.2998 13.75V17.25C13.2998 17.8 13.7498 18.25 14.2998 18.25H22.5598C22.7898 18.25 23.0098 18.17 23.1798 18.03L25.3698 16.28C25.6098 16.09 25.7498 15.8 25.7498 15.5C25.7498 15.2 25.6098 14.91 25.3698 14.72L23.1798 12.97C22.9998 12.83 22.7798 12.75 22.5598 12.75H14.2998Z" fill="#7D8588"/>
<path d="M19.5 12.75C19.09 12.75 18.75 12.41 18.75 12V9C18.75 8.59 19.09 8.25 19.5 8.25C19.91 8.25 20.25 8.59 20.25 9V12C20.25 12.41 19.91 12.75 19.5 12.75Z" fill="#7D8588"/>
<path d="M19.5 22.75C19.09 22.75 18.75 22.41 18.75 22V19C18.75 18.59 19.09 18.25 19.5 18.25C19.91 18.25 20.25 18.59 20.25 19V22C20.25 22.41 19.91 22.75 19.5 22.75Z" fill="#7D8588"/>
<path d="M22.5 22.75H16.5C16.09 22.75 15.75 22.41 15.75 22C15.75 21.59 16.09 21.25 16.5 21.25H22.5C22.91 21.25 23.25 21.59 23.25 22C23.25 22.41 22.91 22.75 22.5 22.75Z" fill="#7D8588"/>
<path d="M2.23341 39.968H5.66541V41H0.997407V32.912H5.60541V33.944H2.23341V36.44H5.22141V37.472H2.23341V39.968ZM9.82547 37.916L11.8535 41H10.5215L9.18947 38.768L7.78547 41H6.48947L8.56547 37.904L6.62147 34.904H7.95347L9.22547 37.052L10.5335 34.904H11.8535L9.82547 37.916ZM15.7077 40.052C16.1797 40.052 16.5677 39.868 16.8717 39.5C17.1757 39.124 17.3277 38.6 17.3277 37.928C17.3277 37.296 17.1797 36.796 16.8837 36.428C16.5877 36.052 16.2117 35.864 15.7557 35.864C15.2997 35.864 14.9037 36.032 14.5677 36.368C14.2397 36.696 14.0757 37.22 14.0757 37.94C14.0757 38.644 14.2397 39.172 14.5677 39.524C14.9037 39.876 15.2837 40.052 15.7077 40.052ZM14.0757 34.916V35.852C14.4917 35.172 15.1157 34.832 15.9477 34.832C16.7477 34.832 17.3797 35.124 17.8437 35.708C18.3077 36.284 18.5397 37.02 18.5397 37.916C18.5397 38.836 18.2997 39.596 17.8197 40.196C17.3477 40.788 16.7157 41.084 15.9237 41.084C15.1157 41.084 14.4997 40.748 14.0757 40.076V43.328H12.8997V34.916H14.0757ZM19.8487 41V32.516H21.0367V41H19.8487ZM25.2261 41.108C24.3301 41.108 23.6261 40.816 23.1141 40.232C22.6021 39.648 22.3461 38.908 22.3461 38.012C22.3461 37.1 22.6101 36.344 23.1381 35.744C23.6661 35.136 24.3621 34.832 25.2261 34.832C26.1541 34.832 26.8701 35.128 27.3741 35.72C27.8781 36.304 28.1301 37.052 28.1301 37.964C28.1301 38.876 27.8701 39.628 27.3501 40.22C26.8381 40.812 26.1301 41.108 25.2261 41.108ZM25.2141 35.828C24.6941 35.828 24.2901 36.036 24.0021 36.452C23.7141 36.86 23.5701 37.368 23.5701 37.976C23.5701 38.576 23.7181 39.084 24.0141 39.5C24.3101 39.908 24.7141 40.112 25.2261 40.112C25.7701 40.112 26.1821 39.912 26.4621 39.512C26.7501 39.112 26.8941 38.604 26.8941 37.988C26.8941 37.356 26.7581 36.84 26.4861 36.44C26.2141 36.032 25.7901 35.828 25.2141 35.828ZM30.5715 34.916V35.984C30.8675 35.232 31.3995 34.856 32.1675 34.856C32.2795 34.856 32.4035 34.868 32.5395 34.892V36.044C32.3715 35.972 32.1835 35.936 31.9755 35.936C31.5675 35.936 31.2315 36.116 30.9675 36.476C30.7035 36.836 30.5715 37.264 30.5715 37.76V41H29.3955V34.916H30.5715ZM37.1819 37.52V37.304C37.1659 36.848 37.0419 36.488 36.8099 36.224C36.5779 35.952 36.2459 35.816 35.8139 35.816C35.4139 35.816 35.0699 35.964 34.7819 36.26C34.4939 36.548 34.3139 36.968 34.2419 37.52H37.1819ZM37.9379 39.62V40.676C37.4899 40.932 36.8979 41.06 36.1619 41.06C35.2179 41.06 34.4659 40.776 33.9059 40.208C33.3459 39.64 33.0659 38.896 33.0659 37.976C33.0659 37 33.3219 36.236 33.8339 35.684C34.3459 35.124 34.9979 34.844 35.7899 34.844C36.5659 34.844 37.1819 35.088 37.6379 35.576C38.0939 36.056 38.3219 36.752 38.3219 37.664C38.3219 37.912 38.2979 38.172 38.2499 38.444H34.2539C34.3339 38.972 34.5579 39.376 34.9259 39.656C35.2939 39.936 35.7579 40.076 36.3179 40.076C36.9659 40.076 37.5059 39.924 37.9379 39.62Z" fill="#7D7F88"/>
</svg>
