<svg width="22" height="22" viewBox="0 0 22 22" fill="none" xmlns="http://www.w3.org/2000/svg">
<path d="M16.9676 7.56251C17.4259 7.56251 17.7926 7.19584 17.7926 6.73751V2.47501C17.7926 2.01668 17.4259 1.65001 16.9676 1.65001C16.5092 1.65001 16.1426 2.01668 16.1426 2.47501V6.73751C16.1426 7.18668 16.5184 7.56251 16.9676 7.56251Z" fill="#1A1E25"/>
<path d="M11 14.4375C10.5417 14.4375 10.175 14.8042 10.175 15.2625V19.525C10.175 19.9833 10.5417 20.35 11 20.35C11.4584 20.35 11.825 19.9833 11.825 19.525V15.2625C11.825 14.8133 11.4584 14.4375 11 14.4375Z" fill="#1A1E25"/>
<path d="M5.03252 7.56251C5.49085 7.56251 5.85752 7.19584 5.85752 6.73751V2.47501C5.85752 2.01668 5.49085 1.65001 5.03252 1.65001C4.57419 1.65001 4.20752 2.01668 4.20752 2.47501V6.73751C4.20752 7.18668 4.57419 7.56251 5.03252 7.56251Z" fill="#1A1E25"/>
<path d="M6.73744 9.32249H3.32744C2.86911 9.32249 2.50244 9.68916 2.50244 10.1475C2.50244 10.6058 2.86911 10.9725 3.32744 10.9725H4.20744V19.525C4.20744 19.9833 4.57411 20.35 5.03244 20.35C5.49077 20.35 5.85744 19.9833 5.85744 19.525V10.9725H6.73744C7.19577 10.9725 7.56244 10.6058 7.56244 10.1475C7.56244 9.68916 7.18661 9.32249 6.73744 9.32249Z" fill="#1A1E25"/>
<path d="M18.6725 9.32249H15.2625C14.8042 9.32249 14.4375 9.68916 14.4375 10.1475C14.4375 10.6058 14.8042 10.9725 15.2625 10.9725H16.1425V19.525C16.1425 19.9833 16.5092 20.35 16.9675 20.35C17.4258 20.35 17.7925 19.9833 17.7925 19.525V10.9725H18.6725C19.1308 10.9725 19.4975 10.6058 19.4975 10.1475C19.4975 9.68916 19.1308 9.32249 18.6725 9.32249Z" fill="#1A1E25"/>
<path d="M12.705 11.0275H11.825V2.47501C11.825 2.01668 11.4583 1.65001 11 1.65001C10.5416 1.65001 10.175 2.01668 10.175 2.47501V11.0275H9.29497C8.83664 11.0275 8.46997 11.3942 8.46997 11.8525C8.46997 12.3108 8.83664 12.6775 9.29497 12.6775H12.705C13.1633 12.6775 13.53 12.3108 13.53 11.8525C13.53 11.3942 13.1633 11.0275 12.705 11.0275Z" fill="#1A1E25"/>
</svg>
