<svg width="32" height="47" viewBox="0 0 32 47" fill="none" xmlns="http://www.w3.org/2000/svg">
<path d="M24.83 8.01002L18.28 2.77002C17 1.75002 15 1.74002 13.73 2.76002L7.18002 8.01002C6.24002 8.76002 5.67002 10.26 5.87002 11.44L7.13002 18.98C7.42002 20.67 8.99002 22 10.7 22H21.3C22.99 22 24.59 20.64 24.88 18.97L26.14 11.43C26.32 10.26 25.75 8.76002 24.83 8.01002ZM16.75 18C16.75 18.41 16.41 18.75 16 18.75C15.59 18.75 15.25 18.41 15.25 18V15C15.25 14.59 15.59 14.25 16 14.25C16.41 14.25 16.75 14.59 16.75 15V18Z" fill="url(#paint0_linear_3_677)"/>
<path d="M5.71895 32.912H7.57895V41H5.71895V37.772H2.75495V41H0.906953V32.912H2.75495V36.2H5.71895V32.912ZM11.7615 41.096C10.8095 41.096 10.0735 40.812 9.55352 40.244C9.03352 39.668 8.77352 38.932 8.77352 38.036C8.77352 37.1 9.04552 36.332 9.58952 35.732C10.1335 35.124 10.8575 34.82 11.7615 34.82C12.7055 34.82 13.4375 35.112 13.9575 35.696C14.4775 36.28 14.7375 37.024 14.7375 37.928C14.7375 38.848 14.4735 39.608 13.9455 40.208C13.4255 40.8 12.6975 41.096 11.7615 41.096ZM11.7495 36.2C11.3655 36.2 11.0775 36.364 10.8855 36.692C10.6935 37.02 10.5975 37.444 10.5975 37.964C10.5975 38.484 10.6935 38.912 10.8855 39.248C11.0855 39.576 11.3815 39.74 11.7735 39.74C12.1575 39.74 12.4415 39.58 12.6255 39.26C12.8175 38.932 12.9135 38.508 12.9135 37.988C12.9135 36.796 12.5255 36.2 11.7495 36.2ZM17.6341 34.916V35.864C17.9701 35.192 18.5421 34.856 19.3501 34.856C20.2061 34.856 20.7741 35.24 21.0541 36.008C21.1901 35.648 21.4181 35.368 21.7381 35.168C22.0581 34.96 22.4341 34.856 22.8661 34.856C23.4661 34.856 23.9381 35.048 24.2821 35.432C24.6341 35.808 24.8101 36.364 24.8101 37.1V41H23.0581V37.388C23.0581 37.044 22.9901 36.772 22.8541 36.572C22.7181 36.372 22.5221 36.272 22.2661 36.272C21.9941 36.272 21.7501 36.384 21.5341 36.608C21.3261 36.824 21.2221 37.216 21.2221 37.784V41H19.4701V37.388C19.4701 37.044 19.4021 36.772 19.2661 36.572C19.1301 36.372 18.9341 36.272 18.6781 36.272C18.4061 36.272 18.1621 36.384 17.9461 36.608C17.7381 36.824 17.6341 37.216 17.6341 37.784V41H15.8821V34.916H17.6341ZM29.7106 37.4V37.256C29.6546 36.544 29.3426 36.188 28.7746 36.188C28.4946 36.188 28.2466 36.292 28.0306 36.5C27.8146 36.7 27.6706 37 27.5986 37.4H29.7106ZM30.9706 39.188V40.652C30.5546 40.924 29.9186 41.06 29.0626 41.06C28.0626 41.06 27.2826 40.772 26.7226 40.196C26.1706 39.612 25.8946 38.864 25.8946 37.952C25.8946 36.984 26.1626 36.228 26.6986 35.684C27.2426 35.132 27.9106 34.856 28.7026 34.856C29.5186 34.856 30.1626 35.096 30.6346 35.576C31.1066 36.048 31.3426 36.756 31.3426 37.7C31.3426 37.884 31.3106 38.2 31.2466 38.648H27.6706C27.7906 38.984 27.9986 39.244 28.2946 39.428C28.5906 39.612 28.9466 39.704 29.3626 39.704C29.9786 39.704 30.5146 39.532 30.9706 39.188Z" fill="url(#paint1_linear_3_677)"/>
<defs>
<linearGradient id="paint0_linear_3_677" x1="5.83014" y1="3.03448" x2="24.4423" y2="22.3165" gradientUnits="userSpaceOnUse">
<stop stop-color="#917AFD"/>
<stop offset="1" stop-color="#6246EA"/>
</linearGradient>
<linearGradient id="paint1_linear_3_677" x1="-2.44514e-07" y1="28.9828" x2="15.3959" y2="55.3929" gradientUnits="userSpaceOnUse">
<stop stop-color="#917AFD"/>
<stop offset="1" stop-color="#6246EA"/>
</linearGradient>
</defs>
</svg>
