<svg width="31" height="47" viewBox="0 0 31 47" fill="none" xmlns="http://www.w3.org/2000/svg">
<path d="M15.5 18V15" stroke="#7D7F88" stroke-width="1.5" stroke-linecap="round" stroke-linejoin="round"/>
<path d="M13.57 2.81997L6.64002 8.36997C5.86002 8.98997 5.36002 10.3 5.53002 11.28L6.86002 19.24C7.10002 20.66 8.46002 21.81 9.90002 21.81H21.1C22.53 21.81 23.9 20.65 24.14 19.24L25.47 11.28C25.63 10.3 25.13 8.98997 24.36 8.36997L17.43 2.82997C16.36 1.96997 14.63 1.96997 13.57 2.81997Z" stroke="#7D7F88" stroke-width="1.5" stroke-linecap="round" stroke-linejoin="round"/>
<path d="M5.79097 32.912H7.02697V41H5.79097V37.46H2.15497V41H0.918969V32.912H2.15497V36.392H5.79097V32.912ZM11.29 41.108C10.394 41.108 9.68997 40.816 9.17797 40.232C8.66597 39.648 8.40997 38.908 8.40997 38.012C8.40997 37.1 8.67397 36.344 9.20197 35.744C9.72997 35.136 10.426 34.832 11.29 34.832C12.218 34.832 12.934 35.128 13.438 35.72C13.942 36.304 14.194 37.052 14.194 37.964C14.194 38.876 13.934 39.628 13.414 40.22C12.902 40.812 12.194 41.108 11.29 41.108ZM11.278 35.828C10.758 35.828 10.354 36.036 10.066 36.452C9.77797 36.86 9.63397 37.368 9.63397 37.976C9.63397 38.576 9.78197 39.084 10.078 39.5C10.374 39.908 10.778 40.112 11.29 40.112C11.834 40.112 12.246 39.912 12.526 39.512C12.814 39.112 12.958 38.604 12.958 37.988C12.958 37.356 12.822 36.84 12.55 36.44C12.278 36.032 11.854 35.828 11.278 35.828ZM16.6954 34.916V35.888C17.0394 35.184 17.6114 34.832 18.4114 34.832C19.3234 34.832 19.9074 35.224 20.1634 36.008C20.3314 35.632 20.5754 35.344 20.8954 35.144C21.2154 34.936 21.5754 34.832 21.9754 34.832C22.5994 34.832 23.0714 35.016 23.3914 35.384C23.7194 35.752 23.8834 36.26 23.8834 36.908V41H22.7074V37.16C22.7074 36.288 22.3554 35.852 21.6514 35.852C21.2994 35.852 20.9834 36.008 20.7034 36.32C20.4314 36.632 20.2954 37.092 20.2954 37.7V41H19.1194V37.16C19.1194 36.288 18.7634 35.852 18.0514 35.852C17.7074 35.852 17.3954 36.008 17.1154 36.32C16.8354 36.632 16.6954 37.092 16.6954 37.7V41H15.5194V34.916H16.6954ZM29.2603 37.52V37.304C29.2443 36.848 29.1203 36.488 28.8883 36.224C28.6563 35.952 28.3243 35.816 27.8923 35.816C27.4923 35.816 27.1483 35.964 26.8603 36.26C26.5723 36.548 26.3923 36.968 26.3203 37.52H29.2603ZM30.0163 39.62V40.676C29.5683 40.932 28.9763 41.06 28.2403 41.06C27.2963 41.06 26.5443 40.776 25.9843 40.208C25.4243 39.64 25.1443 38.896 25.1443 37.976C25.1443 37 25.4003 36.236 25.9123 35.684C26.4243 35.124 27.0763 34.844 27.8683 34.844C28.6443 34.844 29.2603 35.088 29.7163 35.576C30.1723 36.056 30.4003 36.752 30.4003 37.664C30.4003 37.912 30.3763 38.172 30.3283 38.444H26.3323C26.4123 38.972 26.6363 39.376 27.0043 39.656C27.3723 39.936 27.8363 40.076 28.3963 40.076C29.0443 40.076 29.5843 39.924 30.0163 39.62Z" fill="#7D7F88"/>
</svg>
