<svg width="21" height="20" viewBox="0 0 21 20" fill="none" xmlns="http://www.w3.org/2000/svg">
<path d="M15.5 0H5.5C2.74 0 0.5 2.23 0.5 4.98V10.96V11.96C0.5 14.71 2.74 16.94 5.5 16.94H7C7.27 16.94 7.63 17.12 7.8 17.34L9.3 19.33C9.96 20.21 11.04 20.21 11.7 19.33L13.2 17.34C13.39 17.09 13.69 16.94 14 16.94H15.5C18.26 16.94 20.5 14.71 20.5 11.96V4.98C20.5 2.23 18.26 0 15.5 0ZM11.5 11.75H5.5C5.09 11.75 4.75 11.41 4.75 11C4.75 10.59 5.09 10.25 5.5 10.25H11.5C11.91 10.25 12.25 10.59 12.25 11C12.25 11.41 11.91 11.75 11.5 11.75ZM15.5 6.75H5.5C5.09 6.75 4.75 6.41 4.75 6C4.75 5.59 5.09 5.25 5.5 5.25H15.5C15.91 5.25 16.25 5.59 16.25 6C16.25 6.41 15.91 6.75 15.5 6.75Z" fill="url(#paint0_linear_25_1409)"/>
<defs>
<linearGradient id="paint0_linear_25_1409" x1="0.5" y1="1.03397" x2="19.1112" y2="19.9993" gradientUnits="userSpaceOnUse">
<stop stop-color="#917AFD"/>
<stop offset="1" stop-color="#6246EA"/>
</linearGradient>
</defs>
</svg>
