<svg width="32" height="47" viewBox="0 0 32 47" fill="none" xmlns="http://www.w3.org/2000/svg">
<path d="M16.62 20.81C16.28 20.93 15.72 20.93 15.38 20.81C12.48 19.82 6 15.69 6 8.69001C6 5.60001 8.49 3.10001 11.56 3.10001C13.38 3.10001 14.99 3.98001 16 5.34001C17.01 3.98001 18.63 3.10001 20.44 3.10001C23.51 3.10001 26 5.60001 26 8.69001C26 15.69 19.52 19.82 16.62 20.81Z" stroke="#7D7F88" stroke-width="1.5" stroke-linecap="round" stroke-linejoin="round"/>
<path d="M5.52611 33.236V34.46C4.99011 34.124 4.38211 33.956 3.70211 33.956C3.26211 33.956 2.91411 34.056 2.65811 34.256C2.41011 34.448 2.28611 34.704 2.28611 35.024C2.28611 35.344 2.41011 35.6 2.65811 35.792C2.90611 35.984 3.28611 36.192 3.79811 36.416C4.13411 36.56 4.39411 36.684 4.57811 36.788C4.77011 36.892 4.98611 37.04 5.22611 37.232C5.47411 37.416 5.65411 37.64 5.76611 37.904C5.88611 38.16 5.94611 38.456 5.94611 38.792C5.94611 39.504 5.69411 40.064 5.19011 40.472C4.68611 40.88 4.03411 41.084 3.23411 41.084C2.34611 41.084 1.61011 40.912 1.02611 40.568V39.284C1.65811 39.756 2.39011 39.992 3.22211 39.992C3.66211 39.992 4.01011 39.892 4.26611 39.692C4.52211 39.484 4.65011 39.2 4.65011 38.84C4.65011 38.624 4.57411 38.428 4.42211 38.252C4.27011 38.068 4.10611 37.932 3.93011 37.844C3.75411 37.748 3.49011 37.62 3.13811 37.46C2.93011 37.364 2.78211 37.296 2.69411 37.256C2.61411 37.216 2.47811 37.144 2.28611 37.04C2.09411 36.936 1.95011 36.848 1.85411 36.776C1.76611 36.704 1.65411 36.604 1.51811 36.476C1.38211 36.348 1.28211 36.22 1.21811 36.092C1.16211 35.964 1.10611 35.816 1.05011 35.648C1.00211 35.472 0.978109 35.284 0.978109 35.084C0.978109 34.396 1.22611 33.852 1.72211 33.452C2.22611 33.052 2.87411 32.852 3.66611 32.852C4.39411 32.852 5.01411 32.98 5.52611 33.236ZM10.5119 38.288H9.59992C9.15192 38.288 8.81192 38.376 8.57992 38.552C8.35592 38.728 8.24392 38.952 8.24392 39.224C8.24392 39.504 8.33192 39.724 8.50792 39.884C8.68392 40.044 8.93992 40.124 9.27592 40.124C9.65992 40.124 9.95992 40.02 10.1759 39.812C10.3999 39.596 10.5119 39.316 10.5119 38.972V38.288ZM7.45192 36.368V35.228C7.92392 34.956 8.54792 34.82 9.32392 34.82C10.9159 34.82 11.7119 35.592 11.7119 37.136V41H10.5479V40.28C10.2359 40.792 9.68792 41.048 8.90392 41.048C8.32792 41.048 7.86392 40.884 7.51192 40.556C7.16792 40.22 6.99592 39.796 6.99592 39.284C6.99592 38.7 7.21592 38.248 7.65592 37.928C8.09592 37.6 8.71192 37.436 9.50392 37.436H10.5119V37.088C10.5119 36.672 10.4119 36.36 10.2119 36.152C10.0119 35.936 9.67992 35.828 9.21592 35.828C8.56792 35.828 7.97992 36.008 7.45192 36.368ZM14.7962 41L12.6362 34.916H13.8722L14.7002 37.484C14.8922 38.076 15.0522 38.588 15.1802 39.02C15.3162 39.452 15.4002 39.736 15.4322 39.872L15.4802 40.076C15.5522 39.684 15.8162 38.82 16.2722 37.484L17.1242 34.916H18.3482L16.1402 41H14.7962ZM23.1203 37.52V37.304C23.1043 36.848 22.9803 36.488 22.7483 36.224C22.5163 35.952 22.1843 35.816 21.7523 35.816C21.3523 35.816 21.0083 35.964 20.7203 36.26C20.4323 36.548 20.2523 36.968 20.1803 37.52H23.1203ZM23.8763 39.62V40.676C23.4283 40.932 22.8363 41.06 22.1003 41.06C21.1563 41.06 20.4043 40.776 19.8443 40.208C19.2843 39.64 19.0043 38.896 19.0043 37.976C19.0043 37 19.2603 36.236 19.7723 35.684C20.2843 35.124 20.9363 34.844 21.7283 34.844C22.5043 34.844 23.1203 35.088 23.5763 35.576C24.0323 36.056 24.2603 36.752 24.2603 37.664C24.2603 37.912 24.2363 38.172 24.1883 38.444H20.1923C20.2723 38.972 20.4963 39.376 20.8643 39.656C21.2323 39.936 21.6963 40.076 22.2563 40.076C22.9043 40.076 23.4443 39.924 23.8763 39.62ZM28.045 40.052C28.509 40.052 28.901 39.876 29.221 39.524C29.541 39.172 29.701 38.636 29.701 37.916C29.701 37.22 29.533 36.704 29.197 36.368C28.869 36.032 28.497 35.864 28.081 35.864C27.609 35.864 27.221 36.052 26.917 36.428C26.613 36.796 26.461 37.324 26.461 38.012C26.461 38.62 26.609 39.112 26.905 39.488C27.209 39.864 27.589 40.052 28.045 40.052ZM29.701 32.516H30.889V41H29.701V40.076C29.277 40.748 28.657 41.084 27.841 41.084C27.041 41.084 26.409 40.784 25.945 40.184C25.481 39.576 25.249 38.844 25.249 37.988C25.249 37.036 25.493 36.272 25.981 35.696C26.469 35.12 27.097 34.832 27.865 34.832C28.657 34.832 29.269 35.168 29.701 35.84V32.516Z" fill="#7D7F88"/>
</svg>
