<svg width="410" height="520" viewBox="0 0 410 520" fill="none" xmlns="http://www.w3.org/2000/svg">
<path d="M364.857 150.695C364.857 159.779 356.66 167.212 346.64 167.212H318.725C308.705 167.212 300.507 159.779 300.507 150.695V58.7083C300.507 49.624 308.705 42.1914 318.725 42.1914H346.64C356.66 42.1914 364.857 49.624 364.857 58.7083V150.695Z" fill="#6069E8"/>
<path d="M242.269 511.444V424.295H360.585L257.962 517.337C252.171 522.588 242.269 518.869 242.269 511.444Z" fill="#6069E8"/>
<path d="M366.922 418.886H242.269V429.33H354.804L366.922 418.886Z" fill="#6069E8"/>
<path d="M392.549 160.876L222.28 6.48789C212.743 -2.16263 197.153 -2.16263 187.614 6.48789L17.3477 160.876C7.78642 169.524 0 186.586 0 198.805V226C89.9126 286.57 201.275 322.391 321.869 322.391C351.872 322.391 381.243 320.156 409.892 315.892V198.805C409.892 186.586 402.085 169.524 392.549 160.876Z" fill="#6069E8"/>
<path d="M321.869 347.395C201.275 347.395 89.9126 311.574 0 251.004V397.906C0 410.12 11.0333 420.128 24.5124 420.128H385.384C398.856 420.128 409.892 410.12 409.892 397.906V340.897C381.243 345.16 351.872 347.395 321.869 347.395Z" fill="#6069E8"/>
</svg>
